<?xml version="1.0" encoding="UTF-8"?>
<svg width="1200pt" height="1200pt" version="1.1" viewBox="0 0 1200 1200" xmlns="http://www.w3.org/2000/svg">
 <g>
  <path d="m318.82 412.7c51.809 0 93.727-41.918 93.727-93.727 0-51.805-42.066-93.727-93.727-93.727-51.66 0-93.727 41.922-93.727 93.727 0 51.809 41.918 93.727 93.727 93.727z"/>
  <path d="m965.75 272.04c-14.613-5.7578-30.406-9.2969-47.086-9.2969-66.125 0-120.15 49.004-129.3 112.62-0.58984 0-1.1797-0.14844-1.918-0.14844-45.461 0-81.621 40.59-73.949 87.527 6.0508 36.898 40.59 62.289 77.934 62.289h168.41c8.2656 0 15.055-6.6406 15.055-15.055l0.003906-224.06c0-5.9023-3.543-11.66-9.1523-13.871z"/>
  <path d="m801.04 645.61c-6.0508-10.773-21.695-10.773-27.75 0l-171.07 305.68c-5.9023 10.48 1.7695 23.32 13.875 23.32h343.02c12.102 0 19.777-12.84 13.875-23.32z"/>
  <path d="m637.05 722.51-130.62-261.11c-8.4141-15.055-30.258-15.055-38.82 0l-239.7 480.59c-8.2656 14.613 2.5078 32.766 19.336 32.766h247.38c5.4609 0 10.48-2.9531 13.137-7.6758l128.86-230.55c2.5078-4.4258 2.6523-9.5938 0.44141-14.02z"/>
 </g>
</svg>
