<?xml version="1.0" encoding="UTF-8"?>
<svg width="100pt" height="100pt" version="1.1" viewBox="0 0 100 100" xmlns="http://www.w3.org/2000/svg">
 <path d="m50 95.152c24.898 0 45.152-20.254 45.152-45.152s-20.254-45.152-45.152-45.152-45.152 20.254-45.152 45.152 20.254 45.152 45.152 45.152zm-25.781-14.195c0.80859-9.9805 8.0625-13.754 25.781-13.754s24.977 3.7695 25.781 13.754c-6.9922 5.832-15.984 9.3516-25.781 9.3516-9.8008 0-18.789-3.5156-25.781-9.3516zm11.391-32.988c0-7.9375 6.457-14.391 14.391-14.391 7.9375 0 14.391 6.457 14.391 14.391 0 7.9375-6.457 14.391-14.391 14.391-7.9375 0-14.391-6.4531-14.391-14.391zm14.391-38.277c22.227 0 40.309 18.082 40.309 40.309 0 10.332-3.9102 19.762-10.324 26.902-2.3711-9.2812-10.324-12.645-18.082-13.855 4.457-3.5234 7.332-8.9688 7.332-15.078 0-10.605-8.6289-19.234-19.234-19.234s-19.234 8.6289-19.234 19.234c0 6.1133 2.8711 11.555 7.332 15.078-7.7578 1.2109-15.711 4.5703-18.082 13.855-6.4141-7.1406-10.324-16.574-10.324-26.906 0-22.223 18.082-40.305 40.309-40.305z"/>
</svg>
