<?xml version="1.0" encoding="UTF-8"?>
<svg width="1200pt" height="1200pt" version="1.1" viewBox="0 0 1200 1200" xmlns="http://www.w3.org/2000/svg">
 <path d="m316.61 387.46c0-65.215 52.867-118.08 118.08-118.08h377.86c39.129 0 70.848 31.723 70.848 70.852v519.55c0 13.043-10.574 23.617-23.617 23.617h-70.848c-13.043 0-23.617-10.574-23.617-23.617 0-13.043 10.574-23.613 23.617-23.613h47.234v-141.7h-401.48c-30.055 0-55.742 18.719-66.035 45.137-1.7812 5.3516-2.9297 10.465-3.6562 14.836-0.60156 3.5977-0.89062 6.5469-1.0312 8.5-0.070313 0.97266-0.10156 1.6875-0.11328 2.1016l-0.011718 0.375c0.054687 39.082 31.754 70.75 70.848 70.75h23.617c13.043 0 23.617 10.57 23.617 23.613 0 13.043-10.574 23.617-23.617 23.617h-23.617c-65.211 0-118.08-52.867-118.08-118.08zm519.55-47.23v307.01h-401.48c-27.746 0-50.129 7.0039-67.711 18.727-1.0664 0.71094-2.1133 1.4375-3.1367 2.1758v-280.68c0-39.129 31.723-70.848 70.848-70.848h377.86c13.043 0 23.617 10.574 23.617 23.617zm-283.39 401.47c-13.043 0-23.617 10.57-23.617 23.613v141.7c0 8.707 4.7969 16.711 12.473 20.82 7.6797 4.1094 16.996 3.6602 24.246-1.1719l57.746-38.496 57.75 38.496c7.2461 4.832 16.562 5.2812 24.242 1.1719s12.473-12.113 12.473-20.82v-141.7c0-13.043-10.574-23.613-23.617-23.613zm23.617 121.18v-73.953h94.465v73.953l-34.133-22.754c-7.9336-5.2891-18.27-5.2891-26.199 0z" fill-rule="evenodd"/>
</svg>
